<svg width="279" height="104" viewBox="0 0 279 104" fill="none" xmlns="http://www.w3.org/2000/svg">
<path d="M20.4 78.87C17.5667 78.87 15.13 78.8133 13.09 78.7C11.05 78.5867 9.74667 78.4733 9.18 78.36C6.23333 77.7367 4.13667 77.1417 2.89 76.575C1.7 75.9517 1.105 75.4417 1.105 75.045C1.105 74.6483 1.47333 74.3367 2.21 74.11C2.94667 73.8267 3.79667 73.685 4.76 73.685C5.27 73.685 5.78 73.7417 6.29 73.855C6.8 73.9117 7.31 73.9967 7.82 74.11C8.38667 74.28 9.095 74.3933 9.945 74.45C10.8517 74.5067 11.8717 74.535 13.005 74.535C15.2717 74.535 17.85 74.4217 20.74 74.195C23.63 73.9117 26.5483 73.515 29.495 73.005C32.4983 72.495 35.275 71.9283 37.825 71.305C40.375 70.625 42.415 69.8883 43.945 69.095C45.5317 68.3017 46.325 67.4517 46.325 66.545C46.325 66.1483 46.0983 65.7233 45.645 65.27C44.7383 64.3633 43.605 63.5983 42.245 62.975C40.9417 62.3517 39.2983 61.6717 37.315 60.935C35.3883 60.1417 33.0083 59.15 30.175 57.96C27.3983 56.7133 24.0833 55.07 20.23 53.03C17.85 51.7267 15.7817 50.395 14.025 49.035C12.2683 47.675 11.39 46.145 11.39 44.445C11.39 43.5383 11.6733 42.6033 12.24 41.64C12.8633 40.62 13.855 39.5433 15.215 38.41C18.445 35.69 22.015 33.5367 25.925 31.95C29.835 30.3633 33.8017 29.23 37.825 28.55C41.8483 27.87 45.6167 27.53 49.13 27.53C53.1533 27.53 56.61 27.87 59.5 28.55C62.4467 29.1733 64.3167 29.9667 65.11 30.93C65.6767 31.5533 65.96 32.545 65.96 33.905C65.96 35.265 65.705 36.7383 65.195 38.325C64.685 39.855 64.0617 41.1867 63.325 42.32C62.645 43.4533 61.9933 44.0483 61.37 44.105C59.9533 44.1617 59.0467 43.7933 58.65 43C58.2533 42.15 58.055 41.1017 58.055 39.855C58.055 39.175 58.0833 38.4667 58.14 37.73C58.1967 36.9933 58.225 36.285 58.225 35.605C58.225 34.4717 58.0833 33.48 57.8 32.63C57.5733 31.78 57.0067 31.1567 56.1 30.76C54.5133 30.08 52.4733 29.74 49.98 29.74C47.26 29.74 44.3417 30.1367 41.225 30.93C38.165 31.7233 35.4167 32.8567 32.98 34.33C31.96 34.9533 30.7983 35.86 29.495 37.05C28.2483 38.1833 27.1433 39.515 26.18 41.045C25.2167 42.5183 24.735 44.105 24.735 45.805C24.735 47.2783 25.2167 48.8083 26.18 50.395C27.2 51.9817 28.9283 53.54 31.365 55.07C33.405 56.3167 35.5867 57.45 37.91 58.47C40.29 59.49 42.5567 60.4533 44.71 61.36C46.92 62.21 48.8183 63.0317 50.405 63.825C51.9917 64.6183 53.04 65.44 53.55 66.29C54.2867 67.4233 54.655 68.5283 54.655 69.605C54.655 71.135 53.9183 72.4383 52.445 73.515C50.9717 74.5917 48.9883 75.4983 46.495 76.235C44.0583 76.915 41.31 77.425 38.25 77.765C35.2467 78.1617 32.1867 78.445 29.07 78.615C26.01 78.785 23.12 78.87 20.4 78.87ZM70.635 94.85C69.955 94.85 69.19 93.9433 68.34 92.13C67.49 90.3733 67.065 88.1067 67.065 85.33C67.065 84.5367 67.1217 83.715 67.235 82.865C67.2917 82.015 67.4333 81.1367 67.66 80.23C68.34 77.0567 69.1333 73.345 70.04 69.095C70.9467 64.7883 72.3917 60.085 74.375 54.985C75.225 52.8883 76.5 51.16 78.2 49.8C79.9 48.3833 81.6567 47.335 83.47 46.655C85.2833 45.975 86.7283 45.635 87.805 45.635C88.7117 45.635 89.165 45.8617 89.165 46.315C89.165 46.485 88.7967 46.9667 88.06 47.76C87.38 48.5533 86.5583 49.545 85.595 50.735C84.6317 51.925 83.7533 53.1717 82.96 54.475C82.2233 55.7783 81.7983 57.025 81.685 58.215C83.1583 57.365 84.9717 56.515 87.125 55.665C89.335 54.7583 91.6867 54.0217 94.18 53.455C96.6733 52.8317 99.0817 52.52 101.405 52.52C103.898 52.52 106.193 52.8317 108.29 53.455C110.387 54.0217 112.058 54.8717 113.305 56.005C114.608 57.0817 115.26 58.4133 115.26 60C115.26 61.5867 114.495 63.3717 112.965 65.355C111.492 67.3383 108.942 69.18 105.315 70.88C101.745 72.5233 96.8433 73.7417 90.61 74.535C89.6467 74.6483 88.8817 74.2517 88.315 73.345C87.7483 72.4383 87.465 71.5317 87.465 70.625C87.465 70.0583 87.5783 69.5767 87.805 69.18C88.0883 68.7833 88.4567 68.5567 88.91 68.5C90.44 68.3867 92.31 68.0183 94.52 67.395C96.7867 66.7717 98.9967 65.9783 101.15 65.015C103.36 64.0517 105.173 63.0033 106.59 61.87C108.063 60.7367 108.8 59.575 108.8 58.385C108.8 57.3083 108.233 56.345 107.1 55.495C106.023 54.5883 104.295 54.135 101.915 54.135C100.895 54.135 99.7617 54.2483 98.515 54.475C97.2683 54.645 95.88 54.9567 94.35 55.41C92.31 56.0333 90.2417 56.8267 88.145 57.79C86.0483 58.7533 84.1783 59.9433 82.535 61.36C80.8917 62.72 79.7017 64.3633 78.965 66.29C77.5483 70.03 76.1033 74.195 74.63 78.785C73.2133 83.375 72.3067 87.9367 71.91 92.47C71.74 94.0567 71.315 94.85 70.635 94.85ZM168.821 76.915C167.518 76.915 166.13 76.7167 164.656 76.32C163.183 75.9233 161.851 75.4417 160.661 74.875C159.528 74.3083 158.735 73.7983 158.281 73.345C156.411 71.1917 155.476 68.5567 155.476 65.44C155.476 61.53 156.893 57.45 159.726 53.2C163.126 48.27 167.801 45.805 173.751 45.805C176.358 45.805 178.511 46.1167 180.211 46.74C181.968 47.3633 183.356 48.1283 184.376 49.035C185.396 49.9417 186.105 50.82 186.501 51.67C186.955 52.52 187.181 53.1433 187.181 53.54C187.181 54.7867 186.643 55.41 185.566 55.41C184.376 55.41 183.781 55.2117 183.781 54.815C183.781 54.7017 183.81 54.56 183.866 54.39C183.98 54.1633 184.036 53.965 184.036 53.795C184.036 53.5117 183.81 53.1433 183.356 52.69C182.96 52.18 182.591 51.8117 182.251 51.585C181.005 50.6217 179.446 50.14 177.576 50.14C175.99 50.14 174.318 50.5933 172.561 51.5C170.861 52.4067 169.19 53.9367 167.546 56.09C165.676 58.5267 164.288 60.85 163.381 63.06C162.475 65.27 162.021 67.225 162.021 68.925C162.021 70.965 162.645 72.4667 163.891 73.43C165.195 74.3933 167.603 74.875 171.116 74.875C172.816 74.875 174.715 74.6767 176.811 74.28C178.965 73.8267 181.146 73.1467 183.356 72.24C186.473 70.9367 189.448 69.1233 192.281 66.8C193.075 66.1767 193.641 65.865 193.981 65.865C194.321 65.865 194.491 66.0633 194.491 66.46C194.491 67.0833 194.151 67.7067 193.471 68.33C191.205 70.5967 187.975 72.6083 183.781 74.365C179.588 76.065 174.601 76.915 168.821 76.915ZM209.881 78.955C207.614 78.955 205.489 78.53 203.506 77.68C201.523 76.8867 199.908 75.6117 198.661 73.855C197.641 72.3817 196.933 70.965 196.536 69.605C196.139 68.1883 195.941 66.8567 195.941 65.61C195.941 64.42 196.083 63.3433 196.366 62.38C196.649 61.36 196.989 60.5383 197.386 59.915C198.576 57.875 199.823 56.175 201.126 54.815C202.486 53.455 203.959 52.2367 205.546 51.16C207.643 49.8 210.221 49.12 213.281 49.12C214.414 49.12 215.604 49.5733 216.851 50.48C218.098 51.3867 219.911 52.3217 222.291 53.285C223.878 53.9083 225.351 54.645 226.711 55.495C228.128 56.2883 229.261 57.11 230.111 57.96C231.018 58.7533 231.471 59.5183 231.471 60.255C231.471 61.0483 230.819 61.7 229.516 62.21C227.646 62.8333 225.436 63.4 222.886 63.91C220.336 64.3633 217.786 64.7317 215.236 65.015C212.743 65.2983 210.533 65.44 208.606 65.44C207.133 65.44 205.999 65.355 205.206 65.185C204.866 66.4317 204.696 67.735 204.696 69.095C204.696 70.2283 204.866 71.3617 205.206 72.495C205.546 73.6283 206.113 74.6767 206.906 75.64C207.473 76.2633 208.096 76.7167 208.776 77C209.513 77.2267 210.249 77.34 210.986 77.34C212.233 77.34 213.451 77.1417 214.641 76.745C215.888 76.2917 216.964 75.8383 217.871 75.385C218.778 74.875 219.344 74.535 219.571 74.365C220.704 73.685 221.554 73.175 222.121 72.835C222.744 72.495 223.339 72.325 223.906 72.325C224.926 72.325 225.436 72.5517 225.436 73.005C225.436 73.2883 225.153 73.7133 224.586 74.28C224.019 74.79 223.028 75.385 221.611 76.065C219.798 76.9717 217.871 77.68 215.831 78.19C213.848 78.7 211.864 78.955 209.881 78.955ZM210.561 62.635C212.374 62.635 214.499 62.55 216.936 62.38C219.373 62.1533 222.008 61.785 224.841 61.275C226.428 60.935 227.221 60.4533 227.221 59.83C227.221 59.32 226.853 58.7817 226.116 58.215C225.436 57.5917 224.558 57.025 223.481 56.515C222.461 56.005 221.441 55.58 220.421 55.24C219.458 54.8433 218.721 54.645 218.211 54.645C215.774 54.645 213.678 55.155 211.921 56.175C210.221 57.195 208.748 58.5267 207.501 60.17C207.104 60.68 206.679 61.4167 206.226 62.38C207.189 62.55 208.634 62.635 210.561 62.635ZM239.978 78.105C239.298 78.105 238.703 77.6517 238.193 76.745C237.74 75.7817 237.372 74.705 237.088 73.515C236.805 72.2683 236.663 71.22 236.663 70.37C236.663 68.5 236.918 66.3183 237.428 63.825C237.995 61.3317 238.732 58.725 239.638 56.005C240.545 53.2283 241.537 50.5083 242.613 47.845C243.69 45.1817 244.795 42.7167 245.928 40.45C247.062 38.1267 248.082 36.2283 248.988 34.755C249.782 33.4517 250.915 32.5733 252.388 32.12C253.918 31.61 255.363 31.355 256.723 31.355C258.083 31.355 259.16 31.525 259.953 31.865C260.747 32.205 260.973 32.6017 260.633 33.055C258.877 35.3217 257.035 37.985 255.108 41.045C253.182 44.105 251.312 47.335 249.498 50.735C247.742 54.135 246.155 57.5067 244.738 60.85C243.378 64.1933 242.33 67.31 241.593 70.2C240.857 73.09 240.602 75.4983 240.828 77.425C240.828 77.8783 240.545 78.105 239.978 78.105ZM269.693 45.805C269.126 45.805 268.701 45.7483 268.418 45.635C268.135 45.465 267.851 45.2667 267.568 45.04C267.228 44.7 266.831 44.3033 266.378 43.85C265.925 43.34 265.698 42.915 265.698 42.575C265.698 42.2917 265.868 42.1217 266.208 42.065C269.155 41.1583 271.365 40.705 272.838 40.705C273.745 40.705 274.425 40.8467 274.878 41.13C275.388 41.3567 275.813 41.6967 276.153 42.15C276.266 42.2067 276.465 42.49 276.748 43C277.031 43.4533 277.173 43.7367 277.173 43.85C277.173 44.2467 276.691 44.5017 275.728 44.615C274.765 44.7283 273.971 44.8417 273.348 44.955C272.725 45.1817 272.101 45.38 271.478 45.55C270.911 45.72 270.316 45.805 269.693 45.805ZM268.163 76.15C267.823 76.15 267.426 75.8383 266.973 75.215C266.52 74.5917 266.066 73.9117 265.613 73.175C264.48 71.1917 263.545 69.1517 262.808 67.055C262.071 64.9583 261.703 62.9467 261.703 61.02C261.703 59.2633 262.043 57.62 262.723 56.09C263.403 54.56 264.48 53.2567 265.953 52.18C266.803 51.5 268.021 51.16 269.608 51.16C270.571 51.16 271.421 51.3583 272.158 51.755C272.895 52.095 273.263 52.7467 273.263 53.71C273.263 54.6167 272.866 55.8067 272.073 57.28C271.336 58.7533 270.656 60.34 270.033 62.04C269.693 63.1167 269.41 64.3633 269.183 65.78C269.013 67.1967 268.956 68.8117 269.013 70.625C269.013 71.0217 269.013 71.39 269.013 71.73C269.07 72.0133 269.098 72.2967 269.098 72.58C269.098 73.8833 269.013 74.8183 268.843 75.385C268.673 75.895 268.446 76.15 268.163 76.15Z" fill="#C10619"/>
<path d="M143.225 45.9033C141.403 44.8429 137.986 45.7764 136.649 48.1738C136.266 49.2763 136.156 50.4431 136.072 51.5152C135.865 54.1493 136.18 56.7491 135.96 59.384C135.446 65.538 131.855 71.7343 126.377 75.9196C120.899 80.1053 113.628 82.2072 106.973 81.5294C105.972 81.4272 104.88 81.1948 104.288 80.5453C104.075 80.9951 104.207 81.4951 104.631 81.7457C105.792 82.431 107.089 82.9645 108.446 83.3499C113.671 83.7735 119.174 82.5408 124.194 80.4061C130.888 77.5592 136.93 73.0476 141.025 67.4117C144.162 63.0956 146.106 58.1197 146.473 53.2106C146.461 53.1109 146.451 53.011 146.437 52.9111C146.082 50.229 145.401 47.1701 143.224 45.9026L143.225 45.9033Z" fill="url(#paint0_linear_16_205)"/>
<path d="M140.642 44.3166C139.374 43.8764 137.172 43.7182 134.587 44.9638C124.264 49.9382 134.546 64.3226 122.987 74.2724C117.572 78.9329 110.733 80.4104 105.598 79.8284C105.119 79.774 104.621 80.0102 104.361 80.4116C104.332 80.4553 104.309 80.4999 104.287 80.5454C104.88 81.1953 105.972 81.4277 106.974 81.5296C113.628 82.2074 120.898 80.1053 126.377 75.9198C131.856 71.7341 135.447 65.5383 135.961 59.3842C136.181 56.7498 135.865 54.15 136.072 51.5154C136.276 48.922 136.628 45.7791 140.642 44.317L140.642 44.3166Z" fill="url(#paint1_linear_16_205)"/>
<path d="M140.64 44.3174C140.64 44.3174 140.641 44.3169 140.642 44.3167C139.373 43.8766 137.171 43.7183 134.586 44.964C125.237 49.4699 132.791 61.696 125.708 71.3537C132.696 63.2859 129.095 54.7212 132.975 48.2171C134.391 45.8433 137.761 44.0363 140.64 44.3174Z" fill="url(#paint2_linear_16_205)"/>
<path d="M139.609 40.626C139.503 37.6843 138.245 34.2977 136.976 32.0344C136.543 31.2614 136.026 30.484 135.183 30.0738C133.784 29.3936 131.483 30.0846 130.666 31.4721C134.823 33.0408 137.767 36.6217 138.404 40.7343C136.928 40.9945 133.754 42.2121 133.046 44.0706C134.62 43.2051 139.858 41.3118 143.708 44.3722C143.99 43.2665 143.663 40.5228 139.61 40.6264L139.609 40.626Z" fill="url(#paint3_radial_16_205)"/>
<path d="M141.006 67.3674C136.911 73.0033 130.868 77.515 124.175 80.3617C119.155 82.4965 113.651 83.7287 108.427 83.3056C109.422 83.588 110.449 83.7916 111.482 83.9153C116.426 84.5077 121.697 83.3834 126.479 81.3497C132.501 78.7886 137.937 74.7296 141.622 69.6593C145.241 64.6782 147.097 58.721 146.454 53.1667C146.087 58.0758 144.143 63.0519 141.006 67.3678L141.006 67.3674Z" fill="url(#paint4_linear_16_205)"/>
<defs>
<linearGradient id="paint0_linear_16_205" x1="158.794" y1="19.0151" x2="119.417" y2="103.26" gradientUnits="userSpaceOnUse">
<stop stop-color="#E2001A"/>
<stop offset="1" stop-color="#761518"/>
</linearGradient>
<linearGradient id="paint1_linear_16_205" x1="138.949" y1="35.6142" x2="110.313" y2="118.724" gradientUnits="userSpaceOnUse">
<stop stop-color="#E2001A"/>
<stop offset="1" stop-color="#761518"/>
</linearGradient>
<linearGradient id="paint2_linear_16_205" x1="129.834" y1="57.7674" x2="89.1315" y2="130.622" gradientUnits="userSpaceOnUse">
<stop stop-color="#E2001A"/>
<stop offset="1" stop-color="#761518"/>
</linearGradient>
<radialGradient id="paint3_radial_16_205" cx="0" cy="0" r="1" gradientUnits="userSpaceOnUse" gradientTransform="translate(133.929 22.5206) rotate(-20.4867) scale(48.33 41.6363)">
<stop stop-color="#98BF18"/>
<stop offset="1" stop-color="#00642D"/>
</radialGradient>
<linearGradient id="paint4_linear_16_205" x1="141.181" y1="33.0395" x2="130.44" y2="86.6054" gradientUnits="userSpaceOnUse">
<stop stop-color="#E2001A"/>
<stop offset="1" stop-color="#761518"/>
</linearGradient>
</defs>
</svg>
